# AST/ASF file generated using VICON BodyLanguage
# -----------------------------------------------
:version 1.10
:name VICON
:units
  mass 1.0
  length 0.45
  angle deg
:documentation
   .ast/.asf automatically generated from VICON data using
   VICON BodyBuilder and BodyLanguage model FoxedUp or BRILLIANT.MOD
:root
   order TX TY TZ RX RY RZ
   axis XYZ
   position 0 0 0  
   orientation 0 0 0 
:bonedata
  begin
     id 1 
     name lhipjoint
     direction 0.624716 -0.669793 0.401383 
     length 2.38238 
     axis 0 0 0  XYZ
  end
  begin
     id 2 
     name lfemur
     direction 0.34202 -0.939693 0  
     length 6.4574  
     axis 0 0 20  XYZ
    dof rx ry rz
    limits (-160.0 20.0)
           (-70.0 70.0)
           (-60.0 70.0)
  end
  begin
     id 3 
     name ltibia
     direction 0.34202 -0.939693 0   
     length 7.68739   
     axis 0 0 20   XYZ
    dof rx
    limits (-10.0 170.0)
  end
  begin
     id 4 
     name lfoot
     direction 0.0681309 -0.187188 0.979959   
     length 2.46615   
     axis -90 7.62852e-016 20   XYZ
    dof rx rz
    limits (-45.0 90.0)
           (-70.0 20.0)
  end
  begin
     id 5 
     name ltoes
     direction 1.53566e-011 -4.21819e-011 1   
     length 1.2376   
     axis -90 7.62852e-016 20   XYZ
    dof rx
    limits (-90.0 20.0)
  end
  begin
     id 6 
     name rhipjoint
     direction -0.644473 -0.655875 0.393043   
     length 2.43293  
     axis 0 0 0  XYZ 
  end
  begin
     id 7 
     name rfemur
     direction -0.34202 -0.939693 0   
     length 6.7025   
     axis 0 0 -20   XYZ
    dof rx ry rz
    limits (-160.0 20.0)
           (-70.0 70.0)
           (-70.0 60.0)
  end
  begin
     id 8 
     name rtibia
     direction -0.34202 -0.939693 0   
     length 7.80547   
     axis 0 0 -20   XYZ
    dof rx
    limits (-10.0 170.0)
 end
 begin
     id 9 
     name rfoot
     direction -0.0756734 -0.207911 0.975216   
     length 2.40315  
     axis -90 -7.62852e-016 -20   XYZ
    dof rx rz
    limits (-45.0 90.0)
           (-20.0 70.0)
  end
  begin
     id 10 
     name rtoes
     direction -1.5353e-011 -4.21879e-011 1   
     length 1.20477   
     axis -90 -7.62852e-016 -20   XYZ
    dof rx
    limits (-90.0 20.0)
  end
  begin
     id 11 
     name lowerback
     direction 0.0160353 0.987463 -0.157037   
     length 2.18572   
     axis 0 0 0   XYZ
    dof rx ry rz
    limits (-20.0 45.0)
           (-30.0 30.0)
           (-30.0 30.0)
  end
  begin
     id 12 
     name upperback
     direction -0.00499661 0.999756 0.0215076   
     length 2.18016   
     axis 0 0 0   XYZ
    dof rx ry rz
    limits (-20.0 45.0)
           (-30.0 30.0)
           (-30.0 30.0)
  end
  begin
     id 13 
     name thorax
     direction -0.00921346 0.995333 0.0960619   
     length 2.24923   
     axis 0 0 0   XYZ
    dof rx ry rz
    limits (-20.0 45.0)
           (-30.0 30.0)
           (-30.0 30.0)
  end
  begin
     id 14 
     name lowerneck
     direction 0.0274184 0.991181 0.12965   
     length 1.70911   
     axis 0 0 0   XYZ
    dof rx ry rz
    limits (-20.0 45.0)
           (-30.0 30.0)
           (-30.0 30.0)
  end
  begin
     id 15 
     name upperneck
     direction 0.0015627 0.999959 -0.00893559   
     length 1.69312   
     axis 0 0 0   XYZ
    dof rx ry rz
    limits (-20.0 45.0)
           (-30.0 30.0)
           (-30.0 30.0)
  end
  begin
     id 16
     name head
     direction -0.00230242 0.999856 -0.0168327  
     length 1.80241  
     axis 0 0 0   XYZ
    dof rx ry rz
    limits (-20.0 45.0)
           (-30.0 30.0)
           (-30.0 30.0)
  end
  begin
     id 17 
     name lclavicle
     direction 0.955523 0.290741 -0.0494489  
     length 3.84275  
     axis 0 0 0   XYZ
    dof ry rz
    limits (-20.0 10.0)
           (0.0 20.0)
  end
  begin
     id 18 
     name lhumerus
     direction 1 -4.48967e-011 -3.18382e-028   
     length 5.17714   
     axis 180 -30 -90   XYZ
    dof rx ry rz
    limits (-60.0 90.0)
           (-90.0 90.0)
           (-90.0 90.0)
  end
  begin
     id 19
     name lradius
     direction 1 -4.48968e-011 -2.22911e-027   
     length 3.43679   
     axis 180 -30 -90   XYZ
    dof rx
    limits (-10.0 170.0)
  end
  begin
     id 20
     name lwrist
     direction 1 -4.48951e-011 -6.32245e-027   
     length 1.7184   
     axis 3.57107e-015 90 90   XYZ
    dof ry
    limits (-180.0 0.0)
 end
  begin
     id 21 
     name lhand
     direction 1 -4.48924e-011 -1.26431e-026   
     length 0.573117   
     axis 8.06912e-015 90 90   XYZ
    dof rx rz
    limits (-90.0 90.0)
           (-45.0 45.0)
  end
  begin
     id 22 
     name lfingers
     direction 1 -4.49001e-011 -2.52965e-026   
     length 0.462062   
     axis 1.61381e-014 90 90   XYZ
    dof rx
    limits (0.0 90.0)
  end
  begin
     id 23
     name lthumb
     direction 0.707107 -6.35008e-011 0.707107   
     length 0.663431   
     axis -90 45 -1.62303e-014   XYZ
    dof rx rz
    limits (-45.0 45.0)
           (-45.0 45.0)
  end
  begin
     id 24 
     name rclavicle
     direction -0.963917 0.256881 -0.0698287   
     length 3.73057  
     axis 0 0 0   XYZ 
    dof ry rz
    limits (-10.0 20.0)
           (-20.0 0.0)
  end
  begin
     id 25 
     name rhumerus
     direction -1 -4.48962e-011 -2.73982e-027  
     length 5.23908   
     axis 180 30 90   XYZ
    dof rx ry rz
    limits (-90.0 60.0)
           (-90.0 90.0)
           (-90.0 90.0)
  end
  begin
     id 26 
     name rradius
     direction -1 -4.48968e-011 -4.33218e-027   
     length 3.46485   
     axis 180 30 90   XYZ
    dof rx
    limits (-10.0 170.0)
  end
  begin
     id 27 
     name rwrist
     direction -1 -4.48989e-011 -6.32372e-027   
     length 1.73243   
     axis 3.57107e-015 -90 -90   XYZ
    dof ry
    limits (-180.0 0.0)
  end
  begin
     id 28
     name rhand
     direction -1 -4.48948e-011 -1.26448e-026   
     length 0.608752   
     axis 8.06912e-015 -90 -90   XYZ
    dof rx rz
    limits (-90.0 90.0)
           (-45.0 45.0)
  end
  begin
     id 29
     name rfingers
     direction -1 -4.48962e-011 -2.52913e-026   
     length 0.490792   
     axis 1.61381e-014 -90 -90   XYZ
    dof rx
    limits (0.0 90.0)
  end
  begin
     id 30
     name rthumb
     direction -0.707107 -6.34878e-011 0.707107   
     length 0.704682   
     axis -90 -45 1.62303e-014   XYZ
    dof rx rz
    limits (-45.0 45.0)
           (-45.0 45.0)
  end
:hierarchy
  begin
    root lhipjoint rhipjoint lowerback
    lhipjoint lfemur
    lfemur ltibia
    ltibia lfoot
    lfoot ltoes
    rhipjoint rfemur
    rfemur rtibia
    rtibia rfoot
    rfoot rtoes
    lowerback upperback
    upperback thorax
    thorax lowerneck lclavicle rclavicle
    lowerneck upperneck
    upperneck head
    lclavicle lhumerus
    lhumerus lradius
    lradius lwrist
    lwrist lhand lthumb
    lhand lfingers
    rclavicle rhumerus
    rhumerus rradius
    rradius rwrist
    rwrist rhand rthumb
    rhand rfingers
  end

#!OML:ASF G:\JayActor3\Patient Classification 1\Patient 1\Session 6\male.ASF
:FULLY-SPECIFIED
:DEGREES
711
root 1.56665 16.2651 -1.67269 40.5237 -85.3565 -41.8699
lowerback -0.229468 1.71306 3.71491
upperback 0.658647 2.26995 -1.6233
thorax 1.01619 1.16884 -3.72377
lowerneck 8.74811 13.594 8.31417
upperneck -2.84719 18.912 -1.09658
head -1.46226 9.34945 -2.27446
rclavicle 1.00479e-014 -1.90833e-014
rhumerus -35.3137 31.86 -98.5336
rradius 96.1055
rwrist 4.92183
rhand -51.5055 3.4923
rfingers 7.12502
rthumb -24.0334 -25.0229
lclavicle 1.00479e-014 -1.90833e-014
lhumerus 13.8929 -0.984646 49.3271
lradius 43.0196
lwrist 39.8295
lhand -11.6632 22.0678
lfingers 7.12502
lthumb 14.3815 51.5496
rfemur -7.33796 -1.30375 31.4159
rtibia 35.0865
rfoot -26.6571 -10.9639
rtoes 6.09643
lfemur -12.4939 -0.387972 -12.3189
ltibia 39.4432
lfoot -16.4733 -11.1281
ltoes -2.15612
712
root 1.5651 16.264 -1.66991 40.6362 -85.444 -41.9822
lowerback -0.300307 1.71346 3.66168
upperback 0.652838 2.26855 -1.62452
thorax 1.04773 1.16829 -3.69288
lowerneck 8.7432 13.6323 8.30591
upperneck -2.8738 18.9654 -1.02595
head -1.47529 9.37249 -2.2537
rclavicle -6.32384e-015 -7.95139e-016
rhumerus -35.2215 31.9486 -98.6304
rradius 96.0501
rwrist 4.90899
rhand -51.4824 3.47754
rfingers 7.12502
rthumb -24.0113 -25.0406
lclavicle -6.32384e-015 -7.95139e-016
lhumerus 13.6467 -0.629272 49.5638
lradius 41.9945
lwrist 39.4858
lhand -13.3473 21.8653
lfingers 7.12502
lthumb 12.7584 51.4555
rfemur -7.38222 -1.19777 31.3743
rtibia 35.1863
rfoot -26.6996 -11.0393
rtoes 6.10535
lfemur -12.3678 -0.289517 -12.3932
ltibia 39.2328
lfoot -16.6064 -10.9137
ltoes -2.43475
713
root 1.56375 16.2629 -1.66688 40.8151 -85.5408 -42.1645
lowerback -0.359749 1.71298 3.60811
upperback 0.64451 2.26645 -1.63025
thorax 1.0704 1.16716 -3.66691
lowerneck 8.73837 13.6687 8.30174
upperneck -2.89062 19.0165 -0.94913
head -1.48551 9.39443 -2.23111
rclavicle -3.43214e-014 1.19271e-014
rhumerus -35.1427 32.0294 -98.7418
rradius 95.9992
rwrist 4.89468
rhand -51.4648 3.45704
rfingers 7.12502
rthumb -23.9944 -25.0633
lclavicle -3.43214e-014 1.19271e-014
lhumerus 13.4 -0.277847 49.7856
lradius 40.9596
lwrist 39.1223
lhand -15.0284 21.6769
lfingers 7.12502
lthumb 11.1374 51.3613
rfemur -7.42541 -1.06785 31.3346
rtibia 35.2881
rfoot -26.748 -11.1404
rtoes 6.11389
lfemur -12.2468 -0.170878 -12.4716
ltibia 39.0633
lfoot -16.7442 -10.6732
ltoes -2.80575
714
root 1.56282 16.2618 -1.66314 41.0214 -85.6459 -42.3785
lowerback -0.403051 1.71108 3.55825
upperback 0.63281 2.26305 -1.64077
thorax 1.08079 1.16511 -3.64859
lowerneck 8.73554 13.7039 8.29966
upperneck -2.89967 19.0663 -0.870224
head -1.49366 9.41579 -2.20793
rclavicle -3.09048e-015 7.95139e-016
rhumerus -35.0787 32.1048 -98.864
rradius 95.9551
rwrist 4.88088
rhand -51.4525 3.44045
rfingers 7.12502
rthumb -23.9826 -25.0815
lclavicle -3.09048e-015 7.95139e-016
lhumerus 13.1561 0.0780438 50.0006
lradius 39.9135
lwrist 38.7377
lhand -16.6854 21.5003
lfingers 7.12502
lthumb 9.53891 51.2643
rfemur -7.46586 -0.927894 31.2906
rtibia 35.3905
rfoot -26.7994 -11.2553
rtoes 6.12468
lfemur -12.1262 -0.0439103 -12.5585
ltibia 38.9235
lfoot -16.8753 -10.4231
ltoes -3.21123
715
root 1.56242 16.261 -1.65862 41.3154 -85.7605 -42.6801
lowerback -0.442632 1.70794 3.51047
upperback 0.622362 2.25813 -1.65202
thorax 1.09037 1.16231 -3.63232
lowerneck 8.73793 13.7381 8.29998
upperneck -2.90797 19.115 -0.799589
head -1.50148 9.43693 -2.18799
rclavicle 3.89711e-014 -7.95139e-015
rhumerus -35.0162 32.1856 -98.9862
rradius 95.9194
rwrist 4.86476
rhand -51.4446 3.42259
rfingers 7.12502
rthumb -23.975 -25.1003
lclavicle 3.89711e-014 -7.95139e-015
lhumerus 12.9391 0.492054 50.2413
lradius 38.8239
lwrist 38.3
lhand -18.3216 21.3187
lfingers 7.12502
lthumb 7.95996 51.1488
rfemur -7.50744 -0.774078 31.245
rtibia 35.49
rfoot -26.8502 -11.3845
rtoes 6.13462
lfemur -12.0079 0.0846408 -12.6508
ltibia 38.8009
lfoot -16.9907 -10.1809
ltoes -3.58503
716
root 1.56238 16.2605 -1.65304 41.744 -85.8773 -43.1193
lowerback -0.477446 1.7033 3.47482
upperback 0.613954 2.25125 -1.6614
thorax 1.0996 1.15865 -3.62113
lowerneck 8.74112 13.7714 8.29981
upperneck -2.91208 19.1621 -0.737755
head -1.50735 9.45774 -2.17043
rclavicle -2.67109e-014 6.36111e-015
rhumerus -34.9553 32.2716 -99.1038
rradius 95.8953
rwrist 4.84324
rhand -51.4395 3.40794
rfingers 7.12502
rthumb -23.9701 -25.1156
lclavicle -2.67109e-014 6.36111e-015
lhumerus 12.7562 0.977711 50.518
lradius 37.6854
lwrist 37.7933
lhand -19.8814 21.1297
lfingers 7.12502
lthumb 6.45433 51.0114
rfemur -7.54267 -0.621234 31.2012
rtibia 35.5808
rfoot -26.8938 -11.5204
rtoes 6.12964
lfemur -11.8885 0.208352 -12.7425
ltibia 38.6864
lfoot -17.087 -9.95788
ltoes -3.89982
717
root 1.56254 16.2603 -1.64631 42.2929 -85.9958 -43.6832
lowerback -0.506232 1.6966 3.45056
upperback 0.607352 2.24173 -1.66858
thorax 1.10745 1.15376 -3.61429
lowerneck 8.74825 13.8038 8.29966
upperneck -2.91315 19.2077 -0.68713
head -1.51185 9.47831 -2.15637
rclavicle -1.77884e-014 -7.95139e-016
rhumerus -34.8967 32.3656 -99.2154
rradius 95.8841
rwrist 4.82072
rhand -51.4351 3.40426
rfingers 7.12502
rthumb -23.9659 -25.1199
lclavicle -1.77884e-014 -7.95139e-016
lhumerus 12.6114 1.55539 50.8419
lradius 36.4969
lwrist 37.1989
lhand -21.3533 20.9395
lfingers 7.12502
lthumb 5.03322 50.8598
rfemur -7.56607 -0.47689 31.1558
rtibia 35.6573
rfoot -26.9283 -11.6472
rtoes 6.13779
lfemur -11.766 0.324775 -12.8354
ltibia 38.5744
lfoot -17.1701 -9.74665
ltoes -4.18467
718
root 1.5627 16.2601 -1.63851 43.1308 -86.1081 -44.5433
lowerback -0.536909 1.68814 3.44568
upperback 0.609963 2.22954 -1.66695
thorax 1.126 1.14803 -3.6091
lowerneck 8.75318 13.8363 8.29738
upperneck -2.91523 19.2526 -0.651238
head -1.51506 9.49917 -2.14624
rclavicle 1.4585e-014 -1.19271e-014
rhumerus -34.8278 32.4733 -99.3102
rradius 95.8859
rwrist 4.79998
rhand -51.4342 3.39994
rfingers 7.12502
rthumb -23.965 -25.1243
lclavicle 1.4585e-014 -1.19271e-014
lhumerus 12.4971 2.21896 51.2044
lradius 35.2832
lwrist 36.5322
lhand -22.7328 20.7551
lfingers 7.12502
lthumb 3.70116 50.7027
rfemur -7.57187 -0.344916 31.1222
rtibia 35.7154
rfoot -26.9503 -11.7696
rtoes 6.13508
lfemur -11.6393 0.438511 -12.9145
ltibia 38.4646
lfoot -17.255 -9.53437
ltoes -4.48606
719
root 1.56257 16.26 -1.6297 44.2432 -86.2106 -45.6869
lowerback -0.55902 1.67886 3.4637
upperback 0.614227 2.21628 -1.65944
thorax 1.14201 1.14192 -3.61101
lowerneck 8.75826 13.8667 8.29582
upperneck -2.91099 19.2942 -0.621581
head -1.5157 9.5188 -2.13766
rclavicle -4.31425e-015 -5.56597e-015
rhumerus -34.7637 32.5828 -99.3979
rradius 95.8999
rwrist 4.7846
rhand -51.4356 3.39674
rfingers 7.12502
rthumb -23.9664 -25.1273
lclavicle -4.31425e-015 -5.56597e-015
lhumerus 12.3674 2.88168 51.5578
lradius 34.1098
lwrist 35.8579
lhand -24.0027 20.5862
lfingers 7.12502
lthumb 2.47477 50.5515
rfemur -7.55621 -0.233182 31.0992
rtibia 35.7551
rfoot -26.9597 -11.8792
rtoes 6.11702
lfemur -11.507 0.553118 -12.9799
ltibia 38.3591
lfoot -17.3584 -9.29056
ltoes -4.89932
720
root 1.56193 16.2598 -1.62016 45.6612 -86.3049 -47.1442
lowerback -0.580549 1.66902 3.49682
upperback 0.624218 2.20205 -1.64431
thorax 1.16378 1.13564 -3.6135
lowerneck 8.75585 13.8966 8.29113
upperneck -2.89986 19.3338 -0.5959
head -1.51276 9.538 -2.12868
rclavicle -9.31493e-015 -7.15625e-015
rhumerus -34.6961 32.698 -99.4733
rradius 95.922
rwrist 4.77621
rhand -51.438 3.39713
rfingers 7.12502
rthumb -23.9686 -25.1266
lclavicle -9.31493e-015 -7.15625e-015
lhumerus 12.2289 3.55455 51.9086
lradius 32.9753
lwrist 35.1656
lhand -25.1567 20.4263
lfingers 7.12502
lthumb 1.36021 50.4017
rfemur -7.52038 -0.136104 31.0866
rtibia 35.7784
rfoot -26.9589 -11.9737
rtoes 6.09281
lfemur -11.3714 0.675415 -13.032
ltibia 38.2643
lfoot -17.4927 -9.00039
ltoes -5.46467
721
root 1.56096 16.2595 -1.60995 47.2999 -86.3958 -48.827
lowerback -0.595842 1.6598 3.53718
upperback 0.633186 2.18875 -1.62573
thorax 1.18121 1.12978 -3.61669
lowerneck 8.73898 13.9247 8.27716
upperneck -2.86966 19.3686 -0.558304
head -1.50341 9.5552 -2.1124
rclavicle -1.86361e-014 9.54166e-015
rhumerus -34.6361 32.8113 -99.5442
rradius 95.9489
rwrist 4.77647
rhand -51.4453 3.39698
rfingers 7.12502
rthumb -23.9757 -25.1259
lclavicle -1.86361e-014 9.54166e-015
lhumerus 12.06 4.17778 52.2404
lradius 31.9226
lwrist 34.5607
lhand -26.3257 20.3097
lfingers 7.12502
lthumb 0.231129 50.2893
rfemur -7.47157 -0.0520712 31.0752
rtibia 35.7907
rfoot -26.9478 -12.0532
rtoes 6.04563
lfemur -11.2377 0.807614 -13.081
ltibia 38.1863
lfoot -17.6657 -8.65164
ltoes -6.19791
722
root 1.5599 16.2592 -1.59883 49.1547 -86.4798 -50.7269
lowerback -0.606549 1.65024 3.5889
upperback 0.640962 2.17499 -1.60398
thorax 1.19511 1.1237 -3.6232
lowerneck 8.70241 13.9521 8.25067
upperneck -2.81834 19.3994 -0.505738
head -1.48665 9.57088 -2.08689
rclavicle 3.85145e-015 -6.36111e-015
rhumerus -34.5807 32.9234 -99.6084
rradius 95.9768
rwrist 4.78493
rhand -51.4568 3.4007
rfingers 7.12502
rthumb -23.9867 -25.1207
lclavicle 3.85145e-015 -6.36111e-015
lhumerus 11.8687 4.75688 52.5626
lradius 30.9477
lwrist 34.038
lhand -27.5222 20.225
lfingers 7.12502
lthumb -0.924424 50.2027
rfemur -7.41818 0.0138081 31.0634
rtibia 35.7994
rfoot -26.9294 -12.1082
rtoes 5.9893
lfemur -11.1121 0.951793 -13.128
ltibia 38.1315
lfoot -17.8828 -8.23856
ltoes -7.09635
723
root 1.55903 16.2588 -1.58696 51.1856 -86.5583 -52.7983
lowerback -0.617183 1.63968 3.64464
upperback 0.64693 2.15983 -1.57893
thorax 1.207 1.11687 -3.62862
lowerneck 8.65153 13.9784 8.21433
upperneck -2.75292 19.4262 -0.44374
head -1.46493 9.58494 -2.05509
rclavicle -2.76808e-014 3.18055e-015
rhumerus -34.5271 33.0381 -99.6652
rradius 96.0034
rwrist 4.7936
rhand -51.471 3.40368
rfingers 7.12502
rthumb -24.0004 -25.1159
lclavicle -2.76808e-014 3.18055e-015
lhumerus 11.6778 5.33937 52.9069
lradius 30.0219
lwrist 33.5599
lhand -28.7921 20.1456
lfingers 7.12502
lthumb -2.15095 50.1145
rfemur -7.37374 0.0667229 31.0486
rtibia 35.8132
rfoot -26.9046 -12.142
rtoes 5.93177
lfemur -11.0033 1.10907 -13.1772
ltibia 38.1035
lfoot -18.142 -7.75816
ltoes -8.14696
724
root 1.55849 16.2582 -1.57451 53.3805 -86.6336 -55.0264
lowerback -0.633229 1.62773 3.69657
upperback 0.654083 2.1426 -1.54965
thorax 1.22262 1.10906 -3.62741
lowerneck 8.58825 14.0043 8.17139
upperneck -2.68047 19.4508 -0.379997
head -1.43974 9.59826 -2.02035
rclavicle -7.04443e-015 1.59028e-015
rhumerus -34.4684 33.1586 -99.7098
rradius 96.0285
rwrist 4.79803
rhand -51.4842 3.40446
rfingers 7.12502
rthumb -24.013 -25.1135
lclavicle -7.04443e-015 1.59028e-015
lhumerus 11.5065 5.97246 53.2913
lradius 29.1167
lwrist 33.0318
lhand -30.0512 20.0413
lfingers 7.12502
lthumb -3.36688 49.9944
rfemur -7.34673 0.114306 31.0293
rtibia 35.8405
rfoot -26.8746 -12.1605
rtoes 5.86668
lfemur -10.9151 1.28331 -13.2315
ltibia 38.1042
lfoot -18.4321 -7.22609
ltoes -9.27082
725
root 1.55822 16.2574 -1.56152 55.6214 -86.7103 -57.2936
lowerback -0.650627 1.61392 3.73728
upperback 0.658947 2.12294 -1.52001
thorax 1.23597 1.09985 -3.61956
lowerneck 8.53011 14.028 8.13446
upperneck -2.61037 19.473 -0.325168
head -1.41489 9.61056 -1.98967
rclavicle 9.82742e-015 -3.18055e-015
rhumerus -34.412 33.2806 -99.7494
rradius 96.0514
rwrist 4.79293
rhand -51.4906 3.40961
rfingers 7.12502
rthumb -24.0191 -25.1075
lclavicle 9.82742e-015 -3.18055e-015
lhumerus 11.341 6.62221 53.6955
lradius 28.2451
lwrist 32.4259
lhand -31.2644 19.9201
lfingers 7.12502
lthumb -4.53842 49.8514
rfemur -7.34046 0.154889 30.9964
rtibia 35.8879
rfoot -26.8404 -12.1664
rtoes 5.79983
lfemur -10.8463 1.47048 -13.3011
ltibia 38.1329
lfoot -18.7458 -6.66046
ltoes -10.4017
